<svg id="レイヤー_1" data-name="レイヤー 1" xmlns="http://www.w3.org/2000/svg" viewBox="0 0 256 256"><defs><style>.cls-1{fill:none;}.cls-2{fill:#323333;}</style></defs><title>アートボード 4</title><rect class="cls-1" width="256" height="256"/><path class="cls-2" d="M143.84,122.51a17,17,0,0,1,.91,5.49c0,.52,0,1-.07,1.57A64,64,0,0,1,80.7,192c-1.76,0-3.54-.07-5.29-.21a55.31,55.31,0,0,0,13.65,22.49A55.14,55.14,0,0,0,182,186.53c.1-.48.18-.88.25-1.26a56.88,56.88,0,0,0,.89-10,55.13,55.13,0,0,0-39.26-52.78Z"/><path class="cls-2" d="M112.16,133.49a16.69,16.69,0,0,1-.92-5.49c0-.52,0-1,.06-1.52v-.17A64,64,0,0,1,175.3,64c1.77,0,3.54.07,5.3.22A55.13,55.13,0,0,0,74,69.47c-.07.4-.15.81-.23,1.24l-.21,1.18a55.5,55.5,0,0,0-.7,8.82,55.13,55.13,0,0,0,39.26,52.78Z"/><path class="cls-2" d="M214.27,89.05a54.91,54.91,0,0,0-27.75-15c-.38-.08-.77-.16-1.16-.22a57.76,57.76,0,0,0-10.07-.92,55.09,55.09,0,0,0-52.78,39.27,16.91,16.91,0,0,1,5.48-.93c.52,0,1,0,1.53.06a64,64,0,0,1,62.48,64c0,1.77-.08,3.54-.21,5.29a55.11,55.11,0,0,0,22.48-91.54Z"/><path class="cls-2" d="M119.68,167a55.22,55.22,0,0,0,13.8-23.14,16.49,16.49,0,0,1-5.5.92c-.45,0-.91,0-1.35-.06A64,64,0,0,1,64,80.71c0-1.76.07-3.54.22-5.31A55.12,55.12,0,0,0,69.48,182l1.32.26A55.34,55.34,0,0,0,119.68,167Z"/></svg>