<svg id="レイヤー_1" data-name="レイヤー 1" xmlns="http://www.w3.org/2000/svg" viewBox="0 0 256 256"><defs><style>.cls-1{fill:none;}.cls-2{fill:#126db4;}</style></defs><title>アートボード 5</title><rect class="cls-1" width="256" height="256"/><path class="cls-2" d="M128,114.46A13.55,13.55,0,1,0,141.55,128,13.54,13.54,0,0,0,128,114.46Z"/><path class="cls-2" d="M120.54,104a7.68,7.68,0,0,0,14.92,0L150.4,54.66a23.16,23.16,0,1,0-45.56-5.9,23.44,23.44,0,0,0,.76,5.9Z"/><path class="cls-2" d="M135.46,152a7.68,7.68,0,0,0-14.92,0L105.6,201.35a23.16,23.16,0,1,0,45.56,5.89,22.92,22.92,0,0,0-.76-5.89Z"/><path class="cls-2" d="M60.3,92l45.47,24.35a7.68,7.68,0,0,0,10.55-10.55L92,60.3A23.16,23.16,0,1,0,60.3,92Z"/><path class="cls-2" d="M195.7,164l-45.46-24.35a7.69,7.69,0,0,0-10.56,10.56L164,195.7a22.9,22.9,0,0,0,3.63,4.71,23.16,23.16,0,0,0,32.75-32.75A22.9,22.9,0,0,0,195.7,164Z"/><path class="cls-2" d="M104,135.46a7.68,7.68,0,0,0,0-14.92L54.66,105.6a23.44,23.44,0,0,0-5.9-.76,23.16,23.16,0,0,0,0,46.32,23.44,23.44,0,0,0,5.9-.76Z"/><path class="cls-2" d="M207.24,104.84a23.36,23.36,0,0,0-5.89.76L152,120.54a7.68,7.68,0,0,0,0,14.92l49.37,14.94a23.16,23.16,0,1,0,5.89-45.56Z"/><path class="cls-2" d="M115.19,140.81a7.7,7.7,0,0,0-9.42-1.13L60.3,164a23.16,23.16,0,1,0,28,36.38A22.9,22.9,0,0,0,92,195.7l24.35-45.46A7.72,7.72,0,0,0,115.19,140.81Z"/><path class="cls-2" d="M140.82,115.18a7.69,7.69,0,0,0,9.42,1.14L195.7,92a23.16,23.16,0,1,0-28-36.39A23.44,23.44,0,0,0,164,60.3l-24.35,45.47A7.68,7.68,0,0,0,140.82,115.18Z"/></svg>