<svg id="レイヤー_1" data-name="レイヤー 1" xmlns="http://www.w3.org/2000/svg" viewBox="0 0 256 256"><defs><style>.cls-1{fill:none;}.cls-2{fill:#323333;}</style></defs><title>アートボード 1</title><rect class="cls-1" width="256" height="256"/><path class="cls-2" d="M215.13,25.6s-7.43,11.32-56,28.07C109.66,70.75,79.2,140.23,79.2,140.23c-7.34,14.24-36.32,73.39-36.32,73.39-8,15.26,6.65,24.29,15.22,8.52,16.46-30.28,27.08-57.95,52.1-58.74,36.49-1.15,61.45-33.64,53.6-32.14-10.34,4.59-33.12.35-19.7-1.76,32.21-2.63,52.05-27.32,45.59-29-11.43,4.49-22.07.23-24.16-1.06C222.38,92.4,215.13,25.6,215.13,25.6Z"/></svg>