<svg id="レイヤー_1" data-name="レイヤー 1" xmlns="http://www.w3.org/2000/svg" viewBox="0 0 256 256"><defs><style>.cls-1{fill:none;}.cls-2{fill:#323333;}</style></defs><title>アートボード 2</title><rect class="cls-1" width="256" height="256"/><path class="cls-2" d="M207,66.61H151.6l5.17-22.13,37.35-9.06c2.94-.75.38-11.43-2.59-10.68L147.58,35.42,140.3,66.61H49l15.69,156h0s0,0,0,0c0,4.22,28.33,7.65,63.28,7.65s63.27-3.43,63.27-7.65c0,0,0,0,0,0h0Zm-32.75,136.8h-.06a.89.89,0,0,1,0,.28c0,4.24-20.67,7.65-46.21,7.65s-46.23-3.41-46.23-7.65a.89.89,0,0,1,0-.28L70.7,85.83h65.12l-6,25.75c-7.06-5.2-11-13.4-23.52-13.4-11.18,0-15.54,6.53-21.39,11.64l6.69,81.24c0,4.23,15.78,7.66,35.26,7.66s35.26-3.43,35.26-7.66c0,0,0,0,0-.06L170,100.26c-9.56,4.67-12.66,15.5-27,15.5a26.79,26.79,0,0,1-2.75-.12l7-29.81h38.16Z"/></svg>