<svg id="レイヤー_1" data-name="レイヤー 1" xmlns="http://www.w3.org/2000/svg" viewBox="0 0 256 256"><defs><style>.cls-1{fill:none;}.cls-2{fill:#126db4;}</style></defs><title>アートボード 3</title><rect class="cls-1" width="256" height="256"/><circle class="cls-2" cx="128" cy="128" r="54.91"/><rect class="cls-2" x="122.06" y="25.6" width="11.87" height="32.65"/><rect class="cls-2" x="122.06" y="197.75" width="11.87" height="32.65"/><polygon class="cls-2" points="98.27 64.62 81.94 36.35 71.66 42.29 87.98 70.56 98.27 64.62"/><rect class="cls-2" x="165.1" y="186.21" width="11.87" height="32.65" transform="translate(-78.36 112.68) rotate(-30.01)"/><polygon class="cls-2" points="36.35 81.94 64.63 98.26 70.56 87.98 42.29 71.66 36.35 81.94"/><polygon class="cls-2" points="185.44 168.02 213.71 184.34 219.65 174.06 191.37 157.74 185.44 168.02"/><rect class="cls-2" x="25.6" y="122.06" width="32.65" height="11.87"/><rect class="cls-2" x="197.75" y="122.06" width="32.65" height="11.87"/><polygon class="cls-2" points="36.35 174.06 42.29 184.34 70.56 168.02 64.63 157.73 36.35 174.06"/><polygon class="cls-2" points="219.65 81.94 213.71 71.66 185.44 87.98 191.37 98.26 219.65 81.94"/><rect class="cls-2" x="68.65" y="196.61" width="32.65" height="11.87" transform="translate(-132.93 174.86) rotate(-60)"/><polygon class="cls-2" points="157.73 64.62 168.02 70.56 184.34 42.29 174.06 36.35 157.73 64.62"/></svg>